<svg width="48" height="48" viewBox="0 0 48 48" fill="none" xmlns="http://www.w3.org/2000/svg">
<path d="M24 2C29.525 2 34 6.37556 34 11.7778C34 17.18 29.525 21.5556 24 21.5556C18.475 21.5556 14 17.18 14 11.7778C14 6.37556 18.475 2 24 2ZM34 27.7644C34 30.3556 33.3 36.3933 28.525 43.14L26.5 31.3333L28.85 26.7378C27.3 26.5667 25.675 26.4444 24 26.4444C22.325 26.4444 20.7 26.5667 19.15 26.7378L21.5 31.3333L19.475 43.14C14.7 36.3933 14 30.3556 14 27.7644C8.025 29.4756 4 32.5556 4 36.2222V46H44V36.2222C44 32.5556 40 29.4756 34 27.7644Z" fill="#234A7C"/>
</svg>
