<svg width="48" height="48" viewBox="0 0 48 48" fill="none" xmlns="http://www.w3.org/2000/svg">
<path d="M34.8 24C35.5879 24 36.3681 23.843 37.0961 23.5378C37.8241 23.2327 38.4855 22.7855 39.0426 22.2217C39.5998 21.6579 40.0417 20.9886 40.3433 20.252C40.6448 19.5154 40.8 18.7259 40.8 17.9286C40.8 16.3183 40.1679 14.774 39.0426 13.6354C37.9174 12.4968 36.3913 11.8571 34.8 11.8571C33.2087 11.8571 31.6826 12.4968 30.5574 13.6354C29.4321 14.774 28.8 16.3183 28.8 17.9286C28.8 18.7259 28.9552 19.5154 29.2567 20.252C29.5583 20.9886 30.0002 21.6579 30.5574 22.2217C31.6826 23.3603 33.2087 24 34.8 24ZM16.8 21.5714C18.7096 21.5714 20.5409 20.8038 21.8912 19.4375C23.2414 18.0712 24 16.218 24 14.2857C24 12.3534 23.2414 10.5003 21.8912 9.13394C20.5409 7.7676 18.7096 7 16.8 7C14.8904 7 13.0591 7.7676 11.7088 9.13394C10.3586 10.5003 9.6 12.3534 9.6 14.2857C9.6 16.218 10.3586 18.0712 11.7088 19.4375C13.0591 20.8038 14.8904 21.5714 16.8 21.5714ZM34.8 28.8571C30.408 28.8571 21.6 31.0914 21.6 35.5357V41H48V35.5357C48 31.0914 39.192 28.8571 34.8 28.8571ZM16.8 26.4286C11.208 26.4286 0 29.27 0 34.9286V41H16.8V35.5357C16.8 33.4714 17.592 29.8529 22.488 27.1086C20.4 26.6714 18.384 26.4286 16.8 26.4286Z" fill="#234A7C"/>
</svg>
