<svg width="48" height="48" viewBox="0 0 48 48" fill="none" xmlns="http://www.w3.org/2000/svg">
<path d="M26.6995 28.1974C26.4117 28.359 26.1047 28.4515 25.7757 28.5089C25.6157 28.5345 25.4525 28.5545 25.2859 28.5699C25.0421 28.5854 24.3475 28.6184 23.6195 28.5467C23.4615 28.5284 23.3032 28.5109 23.1509 28.4832C23.1256 28.4787 23.1016 28.473 23.0768 28.4682C22.8948 28.4327 22.7177 28.3892 22.5447 28.3399C22.4587 28.3143 22.3773 28.2878 22.2967 28.2605C22.2145 28.2332 22.1338 28.2035 22.0536 28.173C21.9172 28.1205 21.7955 28.0692 21.6897 28.0211C20.9531 27.6811 20.3025 27.1958 19.7354 26.5489C18.4879 25.1263 17.8812 23.3207 17.8812 21.0284C17.8812 18.7362 18.4879 16.9314 19.7354 15.508C20.9495 14.1233 22.5296 13.4503 24.5661 13.4503C25.8954 13.4503 27.0236 13.7467 27.9185 14.3309C28.8004 14.9075 29.394 15.6542 29.7328 16.6134L29.9783 17.3076H42.0733L41.8791 16.0975C41.4764 13.5879 40.4581 11.2709 38.8528 9.2103C37.2572 7.16319 35.1982 5.52688 32.733 4.34576C30.2722 3.1683 27.5244 2.57143 24.5661 2.57143C21.059 2.57143 17.8552 3.36943 15.0439 4.94345C12.2199 6.52438 9.98186 8.74657 8.39115 11.5485C6.80451 14.3423 6 17.5315 6 21.028C6 22.5345 6.15838 23.9798 6.45519 25.3649C19.4154 32.8254 26.6995 28.1974 26.6995 28.1974Z" fill="url(#paint0_linear_1471_14362)"/>
<path d="M30.0536 25.5957L26.9992 27.9991C26.9019 28.0756 26.8021 28.1407 26.6999 28.1977C26.6999 28.1977 19.4161 32.8266 6.45557 25.3661C6.84764 27.1966 7.48808 28.9188 8.39153 30.5087C9.98224 33.3102 12.2203 35.5324 15.0434 37.1134C15.0434 37.1134 16.9126 38.2867 19.0664 39.728L19.0908 39.7443L19.1275 39.7728C21.7902 41.5561 24.8682 43.7506 25.3812 44.6626L25.4154 44.6895L37.0914 35.5035C39.6361 33.5016 40.3421 29.751 38.5335 27.0207C36.6025 24.106 32.7399 23.4838 30.054 25.5965L30.0536 25.5957Z" fill="#18477A"/>
<defs>
<linearGradient id="paint0_linear_1471_14362" x1="6.00041" y1="16.0947" x2="42.0733" y2="16.0947" gradientUnits="userSpaceOnUse">
<stop stop-color="#2257A0"/>
<stop offset="1" stop-color="#8FB7EC"/>
</linearGradient>
</defs>
</svg>
